# xmcd
#
# Track frame offsets: 
#        150
#        20939
#        38335
#        61459
#        83013
#        100045
#        115661
#        125630
#        153521
#
# Disc length: 2279 seconds
#
# Revision: 0
# Processed by: cddbd v1.4PL0 Copyright (c) Steve Scherf et al.
# Submitted via: ExactAudioCopy v0.95a3
#
DISCID=6a08e509
DTITLE=One Point Sixty - Live at the Cactus
DYEAR=2003
DGENRE=Blues
TTITLE0=Everyday I have the Blues
TTITLE1=She's into Something
TTITLE2=Bigg Legged Woman
TTITLE3=Lovin' Whiskey
TTITLE4=Lookin' Back
TTITLE5=Hustled down in Texas
TTITLE6=Extra Jimmy's
TTITLE7=St. James Infirmary Blues
TTITLE8=Tired of Talking
EXTD=
EXTT0=
EXTT1=
EXTT2=
EXTT3=
EXTT4=
EXTT5=
EXTT6=
EXTT7=
EXTT8=
PLAYORDER=
